<?xml version="1.0" encoding="UTF-8"?>
<!-- Generator: Adobe Illustrator 21.0.0, SVG Export Plug-In . SVG Version: 6.00 Build 0)  -->
<svg version="1.1" id="Layer_1" xmlns="http://www.w3.org/2000/svg" xmlns:xlink="http://www.w3.org/1999/xlink" x="0px" y="0px" viewBox="0 0 28 28" style="enable-background:new 0 0 28 28;" xml:space="preserve">
<style type="text/css">
	.st0{fill:#FFFFFF;}
</style>
<title>ic_fluent_alert_28_regular</title>
<desc>Created with Sketch.</desc>
<g id="_xD83D__xDD0D_-Product-Icons">
	<g id="ic_fluent_alert_28_regular">
		<path id="_xD83C__xDFA8_-Color" class="st0" d="M14,3c4.6,0,8.4,3.7,8.5,8.2l0,0.3l0,4.6l1.4,3.6c0,0.1,0.1,0.2,0.1,0.3l0,0.2    c0,0.7-0.5,1.2-1.1,1.3l-0.1,0l-5.2,0l0,0c0,1.9-1.6,3.5-3.5,3.5c-1.9,0-3.4-1.5-3.5-3.3l0-0.2l-5.2,0c-0.2,0-0.3,0-0.5-0.1    c-0.6-0.2-0.9-0.9-0.8-1.5l0-0.1l1.4-3.6l0-4.6C5.5,6.8,9.3,3,14,3z M16,21.7l0-0.2l-4,0l0,0c0,1.1,0.9,2,2,2    C15.1,23.5,15.9,22.7,16,21.7L16,21.7z M14,4.5c-3.8,0-6.9,3-7,6.8l0,0.2v4.8c0,0.1,0,0.1,0,0.2l0,0.1L5.6,20h16.8l-1.3-3.5    c0-0.1,0-0.1,0-0.2l0-0.1v-4.8C21,7.6,17.9,4.5,14,4.5z"/>
	</g>
</g>
</svg>